<svg width="44" height="45" viewBox="0 0 44 45" fill="none" xmlns="http://www.w3.org/2000/svg">
<g clip-path="url(#clip0_34_2401)">
<path d="M34.2702 21.3957H43.7041C43.8515 21.3957 43.9989 21.2486 43.9989 21.1014C43.3355 11.2419 36.1865 3.07465 26.7526 1.01445C26.5315 0.940875 26.3104 1.23519 26.5315 1.45592C30.9536 6.38569 33.7543 13.4492 34.0491 21.175C33.9754 21.3221 34.1228 21.3957 34.2702 21.3957Z" fill="#091E42"/>
<path d="M22.1841 0.5C22.1104 0.5 22.0367 0.5 21.963 0.5C21.8893 0.5 21.8156 0.5 21.7419 0.5C16.0668 4.84114 12.5292 12.5669 12.1606 21.102C12.1606 21.2492 12.308 21.3963 12.4555 21.3963H31.4705C31.6179 21.3963 31.7653 21.2492 31.7653 21.102C31.4705 12.5669 27.8591 4.84114 22.1841 0.5Z" fill="#36B37E"/>
<path d="M12.4555 23.6035C12.308 23.6035 12.1606 23.7507 12.1606 23.8978C12.5292 32.5065 16.0668 40.1587 21.7419 44.4998C21.8156 44.4998 21.8893 44.4998 21.963 44.4998C22.0367 44.4998 22.1104 44.4998 22.1841 44.4998C27.8591 40.1587 31.3968 32.4329 31.7653 23.8978C31.7653 23.7507 31.6179 23.6035 31.4705 23.6035H12.4555Z" fill="#091E42"/>
<path d="M33.9754 23.8243C33.6806 31.55 30.9536 38.6136 26.5315 43.5433C26.3841 43.7641 26.5315 44.0584 26.7526 43.9848C36.1864 41.9246 43.4092 33.7574 43.9988 23.8978C43.9988 23.7507 43.8514 23.6035 43.704 23.6035H34.2702C34.1228 23.6035 33.9754 23.7507 33.9754 23.8243Z" fill="#36B37E"/>
<path d="M9.72815 23.6035H0.294319C0.146915 23.6035 -0.000488281 23.7507 -0.000488281 23.8978C0.589126 33.7574 7.81191 41.9246 17.2457 43.9848C17.4668 44.0584 17.688 43.7641 17.4668 43.5433C12.971 38.6136 10.2441 31.55 9.94926 23.8243C10.023 23.7507 9.87556 23.6035 9.72815 23.6035Z" fill="#36B37E"/>
<path d="M10.023 21.175C10.3178 13.4492 13.0447 6.38569 17.4668 1.45592C17.6143 1.23519 17.4668 0.940875 17.2457 1.01445C7.81191 3.07465 0.589126 11.2419 -0.000488281 21.1014C-0.000488281 21.2486 0.146915 21.3957 0.294319 21.3957H9.72815C9.87556 21.3957 10.023 21.3221 10.023 21.175Z" fill="#091E42"/>
</g>
<defs>
<clipPath id="clip0_34_2401">
<rect width="44" height="44" fill="white" transform="translate(-0.000488281 0.5)"/>
</clipPath>
</defs>
</svg>
